<?xml version="1.0" standalone="no"?>
<!DOCTYPE svg PUBLIC "-//W3C//DTD SVG 20010904//EN"
 "http://www.w3.org/TR/2001/REC-SVG-20010904/DTD/svg10.dtd">
<svg version="1.0" xmlns="http://www.w3.org/2000/svg"
 width="500.000000pt" height="500.000000pt" viewBox="0 0 500.000000 500.000000"
 preserveAspectRatio="xMidYMid meet">

<g transform="translate(0.000000,500.000000) scale(0.100000,-0.100000)"
fill="#000000" stroke="none">
<path d="M2245 4484 c-658 -80 -1253 -510 -1545 -1115 -267 -554 -267 -1183 0
-1737 127 -262 296 -479 525 -670 734 -614 1816 -614 2550 0 229 191 398 407
525 670 473 980 76 2156 -897 2651 -355 180 -757 250 -1158 201z m429 -14
c406 -39 784 -194 1085 -445 704 -588 917 -1562 521 -2383 -156 -325 -394
-597 -690 -792 -335 -219 -686 -324 -1090 -324 -335 0 -602 63 -890 210 -402
204 -701 511 -894 914 -303 636 -248 1369 147 1960 139 208 362 425 581 565
32 20 110 63 175 95 322 162 700 233 1055 200z"/>
<path d="M2445 4328 c-3 -8 -4 -88 -3 -178 l3 -165 98 -3 97 -3 0 36 c0 32 -3
35 -29 35 -16 0 -43 3 -60 6 -26 6 -31 11 -31 35 0 29 1 29 60 29 l60 0 0 35
0 34 -57 3 c-57 3 -58 3 -61 36 l-3 32 59 0 c62 0 72 7 72 51 0 17 -8 19 -84
19 -46 0 -91 3 -100 6 -9 3 -18 0 -21 -8z"/>
<path d="M2278 4323 c-33 -5 -33 -6 -12 -113 8 -45 13 -84 11 -86 -3 -3 -41
34 -85 82 l-81 86 -40 -7 c-35 -6 -40 -10 -36 -28 3 -12 17 -87 31 -167 14
-80 28 -148 30 -151 6 -10 65 3 70 16 3 7 -2 50 -10 95 -9 45 -16 87 -16 93 0
6 38 -30 86 -81 80 -86 87 -91 117 -85 18 3 35 8 39 12 3 3 0 38 -7 76 -7 39
-21 114 -30 168 -10 58 -22 96 -29 96 -6 -1 -23 -4 -38 -6z"/>
<path d="M2881 4193 c-16 -54 -37 -125 -47 -158 -9 -33 -19 -65 -21 -71 -2 -6
7 -14 20 -18 14 -3 32 -9 40 -12 12 -4 20 9 33 56 l17 61 41 -7 c79 -14 116
-2 141 46 30 59 16 119 -35 145 -23 12 -144 54 -157 55 -1 0 -16 -44 -32 -97z
m123 1 c26 -10 38 -41 26 -64 -8 -14 -21 -20 -46 -20 l-36 0 7 37 c10 56 15
60 49 47z"/>
<path d="M1883 4225 l-31 -13 40 -114 c22 -62 48 -135 56 -161 16 -46 18 -48
46 -43 17 4 35 11 40 16 9 9 -100 330 -113 330 -3 -1 -20 -7 -38 -15z"/>
<path d="M3157 4024 c-43 -86 -77 -157 -75 -159 6 -5 168 -85 173 -85 2 0 11
13 20 30 l15 30 -50 25 c-52 26 -59 39 -37 69 13 18 15 17 55 -3 53 -27 58
-27 76 6 14 27 13 28 -35 55 -54 31 -56 35 -35 64 14 19 15 18 60 -4 26 -12
50 -22 55 -22 12 0 33 52 24 61 -9 9 -156 89 -163 89 -3 0 -40 -70 -83 -156z"/>
<path d="M1625 4113 c-16 -8 -31 -17 -33 -18 -3 -3 145 -305 154 -314 3 -4
154 75 167 88 9 9 -12 61 -25 61 -5 0 -26 -9 -48 -20 -22 -11 -44 -20 -50 -20
-5 0 -37 54 -70 120 -33 66 -61 120 -63 120 -1 -1 -15 -8 -32 -17z"/>
<path d="M1458 4009 c-16 -11 -28 -24 -28 -28 0 -5 27 -43 60 -85 33 -42 56
-76 51 -76 -6 0 -54 16 -107 35 -53 19 -104 35 -113 35 -9 -1 -28 -11 -43 -23
l-26 -22 104 -130 c57 -71 110 -131 117 -133 7 -1 23 8 35 21 l23 24 -65 81
-66 80 117 -39 c64 -21 120 -39 123 -39 3 0 18 11 34 24 l30 23 -108 137 c-59
75 -108 136 -109 136 -1 0 -14 -10 -29 -21z"/>
<path d="M3450 3951 c-48 -25 -91 -89 -97 -144 -14 -118 102 -218 216 -187
120 32 177 176 110 275 -49 71 -153 97 -229 56z m147 -83 c31 -35 34 -55 17
-98 -28 -69 -102 -95 -148 -51 -32 31 -40 65 -21 100 35 68 112 93 152 49z"/>
<path d="M2309 3790 c-361 -57 -679 -256 -884 -554 -305 -442 -302 -1035 8
-1485 67 -98 222 -252 318 -318 157 -108 348 -187 524 -217 117 -21 333 -21
450 0 260 45 504 173 695 364 251 252 380 564 380 920 0 543 -322 1015 -830
1215 -151 59 -241 76 -435 80 -93 2 -195 0 -226 -5z m451 -35 c250 -55 468
-173 645 -350 242 -243 375 -562 375 -905 0 -710 -570 -1280 -1280 -1280 -710
0 -1280 570 -1280 1280 0 642 460 1171 1105 1270 86 13 346 4 435 -15z"/>
<path d="M2655 3180 c-81 -35 -193 -70 -223 -70 -12 0 -42 7 -68 16 -42 14
-47 14 -65 -2 -10 -9 -31 -42 -45 -72 -21 -45 -25 -65 -21 -106 3 -28 8 -58
12 -67 4 -10 -2 -19 -20 -27 -21 -10 -25 -18 -25 -55 0 -36 3 -43 21 -44 29
-3 32 -8 19 -32 -9 -17 -8 -21 5 -21 8 0 15 -9 15 -19 0 -11 6 -21 13 -24 9
-3 9 -7 -2 -20 -12 -15 -11 -17 7 -17 24 0 37 -15 22 -25 -18 -11 -11 -64 10
-77 24 -15 26 -31 6 -47 -12 -10 -18 -7 -31 18 -8 17 -23 31 -33 31 -28 0 -63
30 -79 69 l-16 36 -13 -45 c-20 -63 -19 -280 1 -347 15 -51 69 -113 99 -113 9
0 15 -22 19 -75 3 -41 8 -79 12 -85 3 -6 45 -10 98 -10 l92 1 -32 29 c-18 16
-33 34 -33 40 0 11 62 40 140 65 30 10 69 23 85 30 17 7 62 25 100 40 39 15
93 38 121 51 28 13 56 24 62 24 5 0 30 -18 54 -39 l43 -40 3 49 c7 118 -98
298 -207 355 l-33 17 -29 -31 c-15 -17 -32 -31 -37 -31 -5 0 -14 -33 -21 -72
-20 -116 -12 -108 -96 -108 l-74 0 -10 38 c-6 20 -13 56 -17 80 -4 23 -12 42
-19 42 -7 0 -33 16 -58 35 -133 102 -166 418 -54 523 l22 20 70 -23 c104 -35
182 -53 258 -61 37 -4 70 -11 73 -15 3 -5 13 -45 22 -89 17 -77 18 -80 37 -66
18 13 20 26 20 128 0 99 -3 119 -23 158 -26 49 -79 110 -96 110 -6 0 -42 -14
-81 -30z"/>
<path d="M2627 2842 c-30 -31 -33 -42 -14 -42 17 0 69 54 60 63 -11 12 -18 8
-46 -21z"/>
<path d="M2436 2852 c-8 -13 51 -65 64 -57 8 5 3 16 -16 36 -29 30 -39 35 -48
21z"/>
<path d="M2635 2770 c-8 -14 3 -30 21 -30 8 0 14 9 14 20 0 21 -24 28 -35 10z"/>
<path d="M2444 2759 c-9 -15 11 -33 30 -26 9 4 13 13 10 22 -7 17 -30 20 -40
4z"/>
<path d="M2540 2650 c0 -5 5 -10 10 -10 6 0 10 5 10 10 0 6 -4 10 -10 10 -5 0
-10 -4 -10 -10z"/>
<path d="M2506 2571 c-7 -11 41 -71 55 -71 16 0 59 48 59 65 0 12 -12 15 -54
15 -30 0 -57 -4 -60 -9z"/>
<path d="M3713 3629 c-73 -55 -133 -104 -133 -107 1 -4 11 -19 23 -34 l22 -27
79 60 c44 32 81 57 83 56 2 -2 -15 -52 -37 -112 -22 -59 -40 -111 -40 -114 1
-3 11 -19 24 -35 l24 -29 136 104 c75 57 136 107 136 111 0 4 -10 19 -23 34
l-23 27 -79 -61 c-44 -34 -81 -60 -82 -58 -2 1 16 53 39 115 l41 112 -19 26
c-11 15 -24 28 -30 30 -5 1 -69 -43 -141 -98z"/>
<path d="M1124 3681 c-107 -48 -136 -185 -58 -271 85 -94 201 -93 276 1 72 90
35 219 -77 270 -51 23 -89 23 -141 0z m136 -98 c82 -75 16 -191 -85 -149 -67
28 -92 110 -48 158 26 29 96 24 133 -9z"/>
<path d="M816 2408 c-50 -71 31 -152 102 -102 28 20 31 83 4 107 -28 25 -87
22 -106 -5z"/>
<path d="M4077 2412 c-25 -28 -22 -87 5 -106 71 -50 152 31 102 102 -20 28
-83 31 -107 4z"/>
<path d="M1276 1464 c-46 -41 -57 -57 -48 -66 9 -9 18 -6 38 13 l25 24 18 -24
c11 -14 23 -21 30 -16 9 5 7 13 -8 29 -21 22 -21 23 -3 39 17 16 20 15 41 -14
16 -21 26 -28 33 -21 7 7 0 24 -23 51 -18 23 -35 41 -38 41 -3 -1 -33 -26 -65
-56z"/>
<path d="M3627 1482 c-23 -26 -22 -69 3 -82 14 -8 29 -7 56 5 49 20 56 19 52
-7 -2 -17 -10 -23 -27 -23 -26 0 -39 -19 -21 -30 19 -12 59 4 76 30 32 49 -12
98 -65 70 -17 -8 -37 -15 -46 -15 -26 0 -13 33 14 40 14 3 26 11 29 18 6 19
-53 14 -71 -6z"/>
<path d="M3465 1320 c-4 -6 5 -27 20 -46 15 -19 25 -37 23 -40 -3 -2 -30 4
-60 15 -74 26 -91 15 -55 -36 57 -81 75 -99 88 -86 9 9 5 20 -19 49 -17 21
-30 39 -28 41 1 2 28 -6 60 -17 52 -17 91 -18 84 -1 -7 18 -94 130 -100 131
-4 0 -10 -5 -13 -10z"/>
<path d="M1487 1299 c-19 -11 -47 -60 -47 -83 0 -8 12 -28 26 -45 20 -25 34
-31 64 -31 30 0 44 6 64 31 36 43 31 92 -13 126 -19 15 -70 16 -94 2z m89 -45
c16 -24 16 -27 -3 -52 -35 -48 -93 -38 -93 16 0 58 66 83 96 36z"/>
<path d="M1737 1094 c-20 -41 -37 -76 -37 -78 0 -2 7 -6 15 -10 10 -3 20 5 30
25 20 38 35 29 35 -21 0 -24 5 -40 15 -44 12 -4 15 3 15 34 0 29 4 40 15 40 8
0 22 11 30 24 21 32 7 59 -44 85 l-37 20 -37 -75z m93 -4 c0 -15 -7 -20 -24
-20 -31 0 -40 14 -26 40 9 16 15 18 30 10 11 -6 20 -20 20 -30z"/>
<path d="M3165 1130 c-5 -9 -1 -70 11 -147 6 -38 34 -36 34 3 0 33 35 50 66
33 16 -8 28 -9 34 -3 7 7 -9 29 -49 67 -57 55 -83 68 -96 47z m63 -82 c-21
-13 -26 -10 -30 22 l-5 30 24 -22 c17 -16 20 -24 11 -30z"/>
<path d="M2940 1045 c0 -4 10 -40 22 -81 16 -57 25 -74 40 -74 10 0 18 1 18 3
0 1 -11 36 -24 77 -15 47 -30 76 -40 78 -9 2 -16 0 -16 -3z"/>
<path d="M2740 1003 c-56 -8 -70 -14 -70 -27 0 -9 8 -12 24 -9 23 5 25 1 36
-66 9 -52 16 -71 27 -71 13 0 14 10 9 62 -4 34 -8 67 -9 73 -1 5 8 11 21 13
12 2 22 10 22 18 0 14 -11 15 -60 7z"/>
<path d="M2224 953 c-15 -27 -33 -58 -40 -70 -8 -12 -14 -27 -14 -33 0 -17 29
-11 39 8 15 28 67 18 75 -14 4 -13 13 -24 21 -24 18 0 19 -3 -1 98 -20 100
-38 108 -80 35z m46 -28 c0 -18 -5 -25 -20 -25 -17 0 -18 3 -8 25 6 14 15 25
20 25 4 0 8 -11 8 -25z"/>
<path d="M2490 895 c0 -69 3 -85 15 -85 12 0 15 16 15 85 0 69 -3 85 -15 85
-12 0 -15 -16 -15 -85z"/>
</g>
</svg>
